<svg width="205" height="40" viewBox="0 0 205 40" fill="none" xmlns="http://www.w3.org/2000/svg">
<g clip-path="url(#clip0_558_1478)">
<path d="M52.2417 39.8469C49.2747 39.8881 46.3958 39.2522 43.7106 37.841C39.5576 35.6565 36.8685 32.2355 35.4868 27.7802C34.6511 25.0873 34.4006 22.3199 34.6492 19.5015C34.7881 17.9313 35.0289 16.3847 35.5397 14.895C37.579 8.95387 41.6224 5.1207 47.6992 3.56623C51.4804 2.59862 55.2752 2.73208 58.982 4.02158C64.2388 5.85083 67.791 9.4524 69.5485 14.7164C70.9771 18.9951 71.0241 23.3759 69.6248 27.6742C67.6716 33.6781 63.5401 37.4779 57.5024 39.2051C55.8075 39.6899 54.0657 39.8665 52.2417 39.8449V39.8469ZM64.6048 21.4053C64.6439 19.3739 64.3797 17.423 63.6399 15.5623C62.4813 12.6457 60.5633 10.4141 57.6649 9.12463C54.9679 7.92541 52.1673 7.72325 49.3158 8.42983C46.705 9.07556 44.56 10.4612 42.9904 12.683C42.2252 13.7664 41.6439 14.9382 41.2407 16.2041C40.8278 17.4975 40.6379 18.8302 40.5538 20.1766C40.405 22.579 40.6125 24.948 41.4482 27.2169C42.6988 30.6182 44.971 33.0285 48.4664 34.1511C50.3061 34.7419 52.1908 34.9205 54.1166 34.6104C58.9389 33.8351 62.1858 31.1462 63.8415 26.5496C64.4423 24.8813 64.6459 23.1384 64.6067 21.4053H64.6048Z" fill="#1500EA"/>
<path d="M148.392 39.8469C145.687 39.8842 143.063 39.3759 140.583 38.2198C136.133 36.1472 133.22 32.6968 131.67 28.0648C131.05 26.21 130.754 24.2924 130.694 22.3356C130.625 20.0648 130.76 17.8135 131.422 15.629C133.512 8.73798 138.103 4.61433 145.161 3.28754C148.484 2.66143 151.784 2.8734 154.978 3.9843C160.919 6.05299 164.614 10.2434 166.108 16.3278C167.022 20.0491 166.965 23.8135 165.793 27.4818C163.834 33.6035 159.684 37.4877 153.525 39.2228C151.858 39.6918 150.147 39.8685 148.392 39.8449V39.8469ZM136.636 21.2836C136.592 23.6487 136.998 25.8292 137.6 27.368C138.706 30.1943 140.505 32.3925 143.319 33.6624C145.734 34.7517 148.257 35.054 150.836 34.5142C155.531 33.5348 158.602 30.7007 160.078 26.1276C160.436 25.0167 160.593 23.8665 160.679 22.7085C160.851 20.369 160.653 18.0667 159.845 15.8528C158.794 12.9735 156.984 10.7223 154.212 9.3366C151.756 8.10795 149.142 7.74485 146.45 8.21001C141.91 8.99509 138.918 11.6526 137.413 15.998C136.812 17.7331 136.604 19.5368 136.636 21.2836Z" fill="#1500EA"/>
<path d="M168.935 21.7409C168.933 18.3729 169.434 15.4544 170.763 12.7223C173.152 7.81354 177.037 4.75368 182.319 3.50343C185.864 2.66339 189.408 2.74975 192.882 3.87242C198.64 5.73503 202.417 9.61923 204.118 15.4249C205.329 19.5584 205.315 23.7547 203.93 27.8449C201.826 34.0471 197.465 37.8724 191.14 39.3739C187.67 40.1963 184.165 40.1021 180.761 38.9637C174.896 37.0029 171.254 32.9127 169.61 26.9833C169.105 25.158 168.95 23.2816 168.933 21.7429L168.935 21.7409ZM174.872 21.5996C174.894 21.9921 174.921 22.5868 174.962 23.1796C175.066 24.6909 175.368 26.1609 175.937 27.5662C177.331 31.0069 179.757 33.3189 183.362 34.3121C185.167 34.8086 187.001 34.9028 188.846 34.5633C191.608 34.055 193.993 32.8479 195.849 30.6909C197.18 29.1423 198.07 27.37 198.546 25.3798C198.959 23.6546 199.004 21.9058 198.937 20.1452C198.882 18.7242 198.644 17.3366 198.162 16.002C196.849 12.3611 194.438 9.81943 190.711 8.62218C188.77 7.99803 186.78 7.85868 184.777 8.19627C180.556 8.90481 177.603 11.2601 175.953 15.2267C175.133 17.1972 174.906 19.2797 174.874 21.5976L174.872 21.5996Z" fill="#1500EA"/>
<path d="M119.743 39.264C117.423 39.2679 115.206 39.2738 112.945 39.2601C112.094 37.264 111.362 35.2679 110.581 33.2915C109.81 31.3386 109.049 29.3798 108.282 27.4249C107.505 25.4406 106.724 23.4563 105.947 21.472C105.17 19.4858 104.399 17.4995 103.622 15.5132C102.857 13.5564 102.089 11.6016 101.326 9.64475C100.555 7.67027 99.7623 5.70167 98.9971 3.66438C99.2143 3.61138 99.3278 3.56428 99.4413 3.55839C101.077 3.474 104.506 3.53288 105.23 3.66634C106.174 6.10991 107.064 8.61629 107.984 11.1109C108.906 13.6114 109.824 16.1119 110.746 18.6143C111.665 21.1148 112.589 23.6153 113.509 26.1158C114.427 28.6104 115.316 31.1168 116.263 33.5604C116.547 33.5976 116.597 33.4406 116.652 33.2954C117.003 32.3553 117.355 31.4151 117.699 30.473C120.85 21.8449 124.001 13.2169 127.154 4.58881C127.272 4.26889 127.405 3.9529 127.534 3.62905C128.225 3.48577 128.88 3.56821 129.53 3.55447C130.219 3.54073 130.908 3.54269 131.597 3.55447C132.247 3.56624 132.902 3.49362 133.573 3.61727C133.665 3.9843 133.462 4.24927 133.352 4.52797C132.203 7.47792 131.049 10.4279 129.894 13.3759C126.649 21.6663 123.402 29.9568 120.155 38.2473C120.03 38.5653 119.897 38.8813 119.741 39.2659L119.743 39.264Z" fill="#1500EA"/>
<path d="M104.605 39.1776C103.662 39.2974 99.7362 39.2954 98.9044 39.1816C98.875 38.9912 98.8144 38.7851 98.8124 38.577C98.8026 37.4485 98.8104 36.318 98.8046 35.1894C98.8046 34.9146 98.7791 34.6418 98.7654 34.3827C98.511 34.3121 98.4366 34.4711 98.3505 34.5888C96.1448 37.6016 93.1054 39.1521 89.477 39.6546C86.7292 40.0353 84.0381 39.7586 81.4469 38.7753C77.2469 37.1816 74.6636 34.0981 73.4188 29.8273C72.9413 28.1904 72.7632 26.5044 72.7612 24.8067C72.7495 18.0294 72.7534 11.2522 72.7554 4.47694C72.7554 4.20216 72.7006 3.90972 72.9413 3.62709C73.0528 3.60746 73.2035 3.5584 73.3542 3.5584C74.9493 3.5584 76.5463 3.56821 78.1413 3.57999C78.2275 3.57999 78.3116 3.64672 78.3919 3.68008C78.5523 4.053 78.4897 4.43376 78.4917 4.80668C78.4956 10.9558 78.4917 17.105 78.4975 23.2542C78.4975 24.7949 78.5954 26.3278 79.0044 27.8234C79.4174 29.3288 80.0926 30.6909 81.1592 31.8449C82.4822 33.2758 84.1262 34.1315 86.0168 34.5083C88.0424 34.9127 90.0641 34.8577 92.0506 34.2591C94.6574 33.474 96.5304 31.8312 97.6734 29.3562C98.3388 27.9156 98.65 26.3827 98.7654 24.8086C98.8104 24.1845 98.8085 23.5545 98.8085 22.9264C98.8124 20.5417 98.8085 18.157 98.8124 15.7723C98.8124 15.5329 98.8222 15.2954 98.83 15.0049C99.1608 15.1521 99.2038 15.4132 99.3036 15.6212C100.423 17.9352 101.535 20.2512 102.648 22.5672C103.218 23.7527 103.782 24.9441 104.365 26.1237C104.578 26.5574 104.676 26.9971 104.674 27.4799C104.664 31.0873 104.67 34.6968 104.666 38.3042C104.666 38.581 104.631 38.8577 104.609 39.1737L104.605 39.1776Z" fill="#1500EA"/>
<path d="M14.9799 26.0942C15.3381 26.0471 15.7002 25.9863 16.0642 25.9509C20.6751 25.5113 24.8027 21.9293 25.7245 17.0245C26.8635 10.9578 22.9787 5.37193 17.2482 4.09028C11.2321 2.74386 5.30984 6.60647 4.02793 12.5829C3.67369 14.2336 3.71674 15.8862 4.07098 17.5329C4.10817 17.7056 4.13165 17.8803 4.16884 18.0922C3.47993 17.7605 0.963083 15.9274 0.0334536 15.0971C-0.322741 10.3945 2.63446 3.4367 9.86796 0.867514C16.3675 -1.44259 23.6206 0.955835 27.4429 6.95583C31.1124 12.7144 30.678 21.317 24.0062 26.7949C24.0531 27.1501 24.3878 27.2581 24.6207 27.4347C27.3744 29.5054 30.1358 31.5682 32.8954 33.631C35.4044 35.5074 37.9134 37.3817 40.4185 39.262C40.6553 39.4387 40.943 39.5741 41.1348 39.9529C40.8139 39.9686 40.5771 39.9882 40.3402 39.9902C38.1796 39.9921 36.0209 39.9764 33.8602 40.002C33.2946 40.0098 32.8504 39.8567 32.4022 39.5132C28.1474 36.2591 23.8809 33.0206 19.6144 29.7821C18.217 28.7223 16.8079 27.6761 15.4105 26.6163C15.2481 26.4926 14.9976 26.4318 14.9819 26.0962L14.9799 26.0942Z" fill="#1500EA"/>
<path d="M14.806 21.1776C11.3693 21.2326 8.39453 18.3023 8.39649 14.7026C8.39649 11.6075 10.8233 8.26104 14.8511 8.25711C18.7516 8.25319 21.3545 11.4622 21.3076 14.7929C21.2547 18.5162 18.1625 21.2777 14.808 21.1776H14.806Z" fill="#1500EA"/>
<path d="M0.179841 19.9607C0.301182 19.9607 0.379467 19.9352 0.418609 19.9647C9.57204 26.5437 18.7235 33.1246 27.873 39.7095C27.9122 39.737 27.9161 39.8116 27.9611 39.9313C27.7282 39.9352 27.5207 39.9411 27.3133 39.9411C25.4677 39.9411 23.6202 39.9195 21.7747 39.9529C21.1738 39.9627 20.6982 39.7861 20.2207 39.4426C15.8544 36.2905 11.4763 33.1521 7.10216 30.0098C5.0922 28.5672 3.08224 27.1246 1.07424 25.682C0.896145 25.5545 0.729791 25.4073 0.541907 25.2973C0.203326 25.0972 0.101557 24.7988 0.105471 24.4259C0.113299 23.7978 0.105471 23.1717 0.105471 22.5437C0.105471 21.8528 0.101557 21.1639 0.109385 20.473C0.111342 20.2983 0.156356 20.1237 0.179841 19.9607Z" fill="#FE6C17"/>
<path d="M0 30.897C0.865045 31.2522 8.69351 36.3886 13.2732 39.58C13.3886 39.6605 13.4884 39.7625 13.6431 39.894C12.6645 40.0334 0.82786 40.0196 0.0880702 39.8862C0.0606706 39.8096 0.00391423 39.7233 0.00391423 39.6369C0 36.7556 0 33.8744 0 30.897Z" fill="#1500EA"/>
<path d="M52.5188 29.2385C49.0449 29.4092 44.7471 26.5162 44.7432 21.3778C44.7393 17.1011 48.0585 13.5407 52.5814 13.5486C57.4957 13.5564 60.4471 17.6683 60.4079 21.4858C60.3629 25.79 56.6894 29.421 52.5188 29.2365V29.2385Z" fill="#FE6C17"/>
<path d="M148.69 29.2404C144.476 29.3935 140.865 25.735 140.842 21.4504C140.82 17.6997 143.688 13.6075 148.612 13.5486C152.97 13.4975 156.513 16.8891 156.503 21.4171C156.493 26.473 152.27 29.4073 148.69 29.2404Z" fill="#FE6C17"/>
<path d="M186.932 29.2404C183.043 29.4151 179.125 26.0491 179.109 21.4367C179.096 17.4112 182.237 13.5662 186.885 13.5486C191.754 13.5309 194.766 17.5702 194.76 21.4347C194.753 25.737 191.105 29.3857 186.932 29.2404Z" fill="#FE6C17"/>
</g>
<defs>
<clipPath id="clip0_558_1478">
<rect width="205" height="40" fill="white"/>
</clipPath>
</defs>
</svg>
